<?xml version="1.0" encoding="UTF-8" standalone="no"?>
<!-- Created with Inkscape (http://www.inkscape.org/) -->

<svg
   width="210mm"
   height="297mm"
   viewBox="0 0 210 297"
   version="1.1"
   id="svg1"
   sodipodi:docname="logo.svg"
   inkscape:version="1.4.2 (ebf0e940d0, 2025-05-08)"
   xmlns:inkscape="http://www.inkscape.org/namespaces/inkscape"
   xmlns:sodipodi="http://sodipodi.sourceforge.net/DTD/sodipodi-0.dtd"
   xmlns="http://www.w3.org/2000/svg"
   xmlns:svg="http://www.w3.org/2000/svg">
  <sodipodi:namedview
     id="namedview1"
     pagecolor="#ffffff"
     bordercolor="#111111"
     borderopacity="1"
     inkscape:showpageshadow="0"
     inkscape:pageopacity="0"
     inkscape:pagecheckerboard="1"
     inkscape:deskcolor="#d1d1d1"
     inkscape:document-units="mm"
     inkscape:zoom="2.2627666"
     inkscape:cx="354.43338"
     inkscape:cy="570.54052"
     inkscape:window-width="2429"
     inkscape:window-height="1518"
     inkscape:window-x="0"
     inkscape:window-y="0"
     inkscape:window-maximized="0"
     inkscape:current-layer="layer1" />
  <defs
     id="defs1" />
  <g
     inkscape:label="Ebene 1"
     inkscape:groupmode="layer"
     id="layer1">
    <path
       id="rect1"
       style="fill:#000080;fill-rule:evenodd;stroke-width:0.878999"
       d="M 60.692329,105.11344 162.38396,90.358927 149.3153,194.45899 47.616042,206.17335 Z"
       sodipodi:nodetypes="ccccc" />
    <path
       id="path1-6-7"
       style="fill:#008000;fill-rule:evenodd;stroke-width:1.7836"
       d="m 104.87769,99.62353 c -13.384347,0.0336 1.33108,30.98772 -7.479653,39.73895 -8.810735,8.75124 -41.085495,-11.39225 -41.271937,8.68347 -0.04852,5.22464 1.80923,11.04143 4.938001,16.79594 a 18.474804,18.474804 0 0 1 3.618369,-4.53958 l 0.65744,-0.57215 a 18.474804,18.474804 0 0 1 11.001115,-4.2434 18.474804,18.474804 0 0 1 14.874342,6.4889 18.474804,18.474804 0 0 1 -1.940038,25.90054 18.474804,18.474804 0 0 1 -4.113885,2.71145 c 6.341463,4.08072 12.914912,6.65344 18.808686,6.77772 20.07213,0.42325 1.00763,-32.14337 10.02236,-40.68431 9.01474,-8.54094 39.19819,13.49164 39.85819,-6.57409 0.21883,-6.65292 -1.89801,-14.30746 -5.80017,-21.61106 a 18.474804,18.474804 0 0 1 -4.15206,5.20909 18.474804,18.474804 0 0 1 -25.92146,-1.63458 18.474804,18.474804 0 0 1 1.32861,-25.93878 l 0.65744,-0.57267 a 18.474804,18.474804 0 0 1 2.80534,-1.92218 c -4.8472,-2.2895 -10.08564,-3.718423 -15.58476,-3.964271 z" />
    <path
       style="fill:#d35f5f;fill-rule:evenodd;stroke-width:0.588844"
       id="path1-6-3-2"
       sodipodi:type="arc"
       sodipodi:cx="16.522419"
       sodipodi:cy="177.29802"
       sodipodi:rx="16.136221"
       sodipodi:ry="16.136221"
       sodipodi:start="4.7595758"
       sodipodi:end="4.712389"
       sodipodi:open="true"
       sodipodi:arc-type="arc"
       d="m 17.283553,161.17976 a 16.136221,16.136221 0 0 1 15.364983,16.6892 16.136221,16.136221 0 0 1 -16.50679,15.56079 A 16.136221,16.136221 0 0 1 0.38732081,177.10767 16.136221,16.136221 0 0 1 16.522419,161.1618"
       transform="rotate(-42.405324)" />
    <path
       style="fill:#ffff00;fill-rule:evenodd;stroke-width:0.588844"
       id="path1-6-3-2-1"
       sodipodi:type="arc"
       sodipodi:cx="-60.342102"
       sodipodi:cy="180.46115"
       sodipodi:rx="16.136221"
       sodipodi:ry="16.136221"
       sodipodi:start="4.7595758"
       sodipodi:end="4.712389"
       sodipodi:open="true"
       sodipodi:arc-type="arc"
       d="m -59.580968,164.34289 a 16.136221,16.136221 0 0 1 15.364983,16.6892 16.136221,16.136221 0 0 1 -16.50679,15.56079 16.136221,16.136221 0 0 1 -15.754425,-16.32208 16.136221,16.136221 0 0 1 16.135098,-15.94587"
       transform="rotate(-42.405324)" />
  </g>
</svg>
